HIERARCHY
ROOT RootJoint
{
    OFFSET   0.000000   0.000000   0.000000
    CHANNELS 6 Xposition Yposition Zposition Xrotation Yrotation Zrotation
    JOINT pelvis_lowerback
    {
        OFFSET   0.000000   0.093605   0.000000
        CHANNELS 3 Xrotation Yrotation Zrotation
        JOINT lowerback_torso
        {
            OFFSET   0.000000   0.100000   0.000000
            CHANNELS 3 Xrotation Yrotation Zrotation
            JOINT torso_head
            {
                OFFSET   0.000000   0.282350   0.000000
                CHANNELS 3 Xrotation Yrotation Zrotation
                End Site
                {
                    OFFSET   0.000000   0.192650   0.000000
                }
            }
            JOINT rTorso_Clavicle
            {
                OFFSET  -0.001000   0.157500   0.000000
                CHANNELS 3 Xrotation Yrotation Zrotation
                JOINT rShoulder
                {
                    OFFSET  -0.117647   0.000000   0.000000
                    CHANNELS 3 Xrotation Yrotation Zrotation
                    JOINT rElbow
                    {
                        OFFSET  -0.245000   0.000000   0.000000
                        CHANNELS 3 Xrotation Yrotation Zrotation
                        JOINT rWrist
                        {
                            OFFSET  -0.240000   0.000000   0.000000
                            CHANNELS 3 Xrotation Yrotation Zrotation
                            End Site
                            {
                                OFFSET  -0.116353  -0.002500   0.000000
                            }
                        }
                    }
                }
            }
            JOINT lTorso_Clavicle
            {
                OFFSET   0.001000   0.157500   0.000000
                CHANNELS 3 Xrotation Yrotation Zrotation
                JOINT lShoulder
                {
                    OFFSET   0.117647   0.000000   0.000000
                    CHANNELS 3 Xrotation Yrotation Zrotation
                    JOINT lElbow
                    {
                        OFFSET   0.245000   0.000000   0.000000
                        CHANNELS 3 Xrotation Yrotation Zrotation
                        JOINT lWrist
                        {
                            OFFSET   0.240000   0.000000   0.000000
                            CHANNELS 3 Xrotation Yrotation Zrotation
                            End Site
                            {
                                OFFSET   0.116353  -0.002500   0.000000
                            }
                        }
                    }
                }
            }
        }
    }
    JOINT rHip
    {
        OFFSET  -0.100000  -0.051395   0.000000
        CHANNELS 3 Xrotation Yrotation Zrotation
        JOINT rKnee
        {
            OFFSET   0.000000  -0.410000   0.000000
            CHANNELS 3 Xrotation Yrotation Zrotation
            JOINT rAnkle
            {
                OFFSET   0.000000  -0.390000   0.000000
                CHANNELS 3 Xrotation Yrotation Zrotation
                JOINT rToeJoint
                {
                    OFFSET   0.000000  -0.050000   0.130000
                    CHANNELS 3 Xrotation Yrotation Zrotation
                    End Site
                    {
                        OFFSET  -0.010000   0.002000   0.060000
                    }
                }
            }
        }
    }
    JOINT lHip
    {
        OFFSET   0.100000  -0.051395   0.000000
        CHANNELS 3 Xrotation Yrotation Zrotation
        JOINT lKnee
        {
            OFFSET   0.000000  -0.410000   0.000000
            CHANNELS 3 Xrotation Yrotation Zrotation
            JOINT lAnkle
            {
                OFFSET   0.000000  -0.390000   0.000000
                CHANNELS 3 Xrotation Yrotation Zrotation
                JOINT lToeJoint
                {
                    OFFSET   0.000000  -0.050000   0.130000
                    CHANNELS 3 Xrotation Yrotation Zrotation
                    End Site
                    {
                        OFFSET   0.010000   0.002000   0.060000
                    }
                }
            }
        }
    }
}
MOTION
Frames: 10
Frame Time:   0.008333
 -2.376719   0.925631   3.975860   0.000000   0.000000   0.000000   0.000000   0.000000   0.000000   0.000000   0.000000   0.000000   0.000000   0.000000   0.000000   0.000000   0.000000   0.000000   0.000000   0.000000   0.000000   0.000000   0.000000   0.000000   0.000000   0.000000   0.000000   0.000000   0.000000   0.000000   0.000000   0.000000   0.000000   0.000000   0.000000   0.000000   0.000000   0.000000   0.000000   0.000000   0.000000   0.000000   0.000000   0.000000   0.000000   0.000000   0.000000   0.000000   0.000000   0.000000   0.000000   0.000000   0.000000   0.000000   0.000000   0.000000   0.000000   0.000000   0.000000   0.000000   0.000000   0.000000   0.000000
 -2.376596   0.925775   3.973782   1.152331   0.125922   0.113598  -0.862649  -0.073206  -0.154645   0.030638  -0.077351   0.019935  -0.497438   0.196042  -0.026336   0.541091  -0.860766  -0.198260   1.488315  -0.443239   2.221356   0.067899   3.742577  -0.078177  -0.009168  -0.735868  -2.076694   0.447172   0.618525   0.033588   1.975216   0.680313  -1.954753   0.064098  -3.637073   0.088458   0.018700   0.683699   2.139233  -2.170910  -0.210935  -0.291929   1.890990   0.002827  -0.001548  -0.802095  -0.392785   0.129568   0.082906   0.000032  -0.000349  -2.221027   0.039114   0.003529   2.348896  -0.002400   0.003364  -1.595236   0.286668   0.110743   0.239372  -0.000484   0.000935
 -2.376473   0.926026   3.971452   2.196266   0.256172   0.234658  -1.540784  -0.156746  -0.313522   0.153524  -0.172362   0.029033  -0.950280   0.386878  -0.054991   1.065462  -1.704771   0.146681   2.971230  -0.796088   4.883514   0.160005   7.344371  -0.142036   0.076248  -0.530353  -3.648292   0.889902   1.206500  -0.458299   3.946029   1.242258  -4.363907   0.152633  -7.120947   0.160651   0.140517   0.481593   3.833652  -4.323185  -0.399198  -0.729174   3.775223   0.007072  -0.002857  -1.540455  -0.768772   0.242414   0.169937   0.000165  -0.000628  -4.318881   0.080909   0.120008   4.727098  -0.006694   0.006470  -3.079934   0.558828   0.223796   0.423247  -0.000955   0.001452
 -2.376402   0.926079   3.969089   3.161957   0.390867   0.351298  -2.104968  -0.248171  -0.471796   0.332735  -0.275668   0.022012  -1.355863   0.564899  -0.077794   1.562497  -2.462940   0.851969   4.446322  -1.053329   7.839693   0.253537  10.715804  -0.189374   0.178033  -0.112357  -4.617113   1.312307   1.712402  -1.334570   5.804242   1.654955  -6.938835   0.241151 -10.384605   0.212295   0.277715   0.068101   4.865948  -6.408982  -0.552505  -1.267349   5.520794   0.011505  -0.003816  -2.228832  -1.123090   0.341440   0.247897   0.000330  -0.000792  -6.255399   0.110056   0.345169   6.969846  -0.011764   0.009073  -4.464866   0.812191   0.337099   0.590330  -0.001433   0.001772
 -2.376402   0.925711   3.966803   4.070357   0.533900   0.460740  -2.587029  -0.346133  -0.631631   0.535866  -0.385272   0.000643  -1.724026   0.730786  -0.096966   2.035015  -3.136985   1.782635   5.918957  -1.209675  11.000981   0.337567  13.866576  -0.222770   0.279233   0.351491  -5.109523   1.713680   2.139180  -2.447130   7.554279   1.923735  -9.567438   0.318595 -13.440007   0.247301   0.413297  -0.416724   5.376040  -8.424318  -0.669703  -1.879474   7.124782   0.015553  -0.004461  -2.872354  -1.456334   0.428475   0.312130   0.000471  -0.000851  -8.044136   0.123342   0.662837   9.067596  -0.016865   0.011381  -5.758535   1.047619   0.449617   0.737372  -0.001847   0.001936
 -2.376460   0.924754   3.964673   4.930527   0.684515   0.560529  -3.008569  -0.450476  -0.789113   0.744991  -0.501602  -0.024460  -2.059719   0.885688  -0.116743   2.486339  -3.744183   2.873495   7.346201  -1.265833  14.218200   0.405686  16.808605  -0.243564   0.372860   0.812533  -5.211131   2.093619   2.502828  -3.698270   9.199007   2.067366 -12.179397   0.380124 -16.299029   0.268993   0.542116  -0.930400   5.508677 -10.363487  -0.751217  -2.545571   8.599636   0.018984  -0.004875  -3.474076  -1.769298   0.505118   0.364455   0.000575  -0.000842  -9.694254   0.119890   1.055404  11.029173  -0.021498   0.013437  -6.967127   1.266205   0.560579   0.866537  -0.002169   0.001991
 -2.376543   0.923073   3.962745   5.746444   0.836945   0.649613  -3.385701  -0.561104  -0.937524   0.949845  -0.624996  -0.042676  -2.366271   1.030592  -0.138498   2.920338  -4.303763   4.076191   8.685269  -1.234949  17.354145   0.454947  19.553441  -0.253211   0.454081   1.246707  -4.997871   2.452951   2.822027  -5.020924  10.741424   2.109398 -14.729832   0.424416 -18.972000   0.280088   0.660744  -1.447263   5.375716 -12.221911  -0.798462  -3.250497   9.958801   0.021724  -0.005167  -4.036606  -2.062880   0.572737   0.407200   0.000640  -0.000796 -11.212621   0.100108   1.505314  12.865476  -0.025374   0.015160  -8.096141   1.468986   0.669378   0.980544  -0.002394   0.001967
 -2.376548   0.920085   3.961369   6.208625   0.952087   0.701973  -3.412847  -0.641725  -1.023454   1.157213  -0.665233  -0.020408  -2.788906   1.026665  -0.208207   3.357400  -4.996072   4.810171  10.111945  -1.097236  20.150529   0.490415  22.537640  -0.267373   0.493426   1.615067  -3.896442   2.791151   3.286888  -5.837518  12.350258   1.916118 -17.232938   0.473956 -22.205472   0.303059   0.753460  -1.871900   4.563387 -13.644432  -1.024714  -3.908648  11.414792   0.023793  -0.008386  -4.590209  -2.538682   0.681466   0.291890   0.000088   0.000098 -12.246422   0.149785   1.992357  14.572170  -0.027493   0.017178  -9.318331   1.651457   0.644806   0.996674  -0.001987   0.001631
 -2.376523   0.915979   3.960349   6.617249   1.057841   0.749221  -3.462438  -0.711372  -1.092128   1.353913  -0.697224   0.001719  -3.179634   1.020560  -0.267540   3.770276  -5.668840   5.312965  11.435723  -0.936687  22.632877   0.499257  25.332931  -0.268963   0.542557   2.070395  -2.886377   3.110614   3.741594  -6.460566  13.841669   1.684831 -19.476087   0.496535 -25.250087   0.311282   0.867692  -2.510662   3.795946 -14.930575  -1.236195  -4.545527  12.825139   0.024861  -0.010976  -5.103190  -2.987890   0.777850   0.194104  -0.000286   0.000683 -13.168930   0.191062   2.470688  16.185859  -0.028482   0.018521 -10.459468   1.822039   0.625674   1.005820  -0.001630   0.001335
 -2.376752   0.914038   3.959274   7.011549   1.269804   0.381036  -3.480803  -0.826782  -0.851131   1.524010  -0.762549   0.161601  -3.553664   1.013860  -0.307875   4.149563  -6.298088   5.839345  12.655389  -0.751010  24.918010   0.496181  27.919596  -0.264086   0.579570   2.407158  -2.118584   3.392351   4.134781  -7.169943  15.211085   1.392476 -21.590361   0.507112 -28.090899   0.310536   0.975612  -3.123218   3.188978 -16.296957  -1.319430  -4.268303  14.661021   0.019949  -0.007353  -5.698565  -3.111012   1.258832   0.198689  -0.000247   0.000546 -14.067865   0.179789   3.297616  17.648024  -0.027622   0.021107 -11.514554   1.982319   0.611723   1.085896  -0.001628   0.001436
